<?xml version="1.0" encoding="utf-8"?>
<!-- Generator: Adobe Illustrator 27.6.1, SVG Export Plug-In . SVG Version: 6.00 Build 0)  -->
<svg version="1.1"
	 id="svg2" xmlns:sodipodi="http://sodipodi.sourceforge.net/DTD/sodipodi-0.dtd" xmlns:inkscape="http://www.inkscape.org/namespaces/inkscape" xmlns:svg="http://www.w3.org/2000/svg" inkscape:version="1.2 (dc2aeda, 2022-05-15)" sodipodi:docname="RBA Logo.svg"
	 xmlns="http://www.w3.org/2000/svg" xmlns:xlink="http://www.w3.org/1999/xlink" x="0px" y="0px" viewBox="0 0 500 500"
	 style="enable-background:new 0 0 500 500;" xml:space="preserve">
<style type="text/css">
	
		.st0{fill-rule:evenodd;clip-rule:evenodd;stroke:#000000;stroke-width:19.5213;stroke-linecap:round;stroke-linejoin:round;stroke-miterlimit:7.7;stroke-opacity:0;}
	.st1{fill:#FFFFFF;}
</style>
<sodipodi:namedview  bordercolor="#000000" borderopacity="0.25" id="namedview4" inkscape:current-layer="g10" inkscape:cx="281.92694" inkscape:cy="262.5068" inkscape:deskcolor="#d1d1d1" inkscape:pagecheckerboard="0" inkscape:pageopacity="0.0" inkscape:showpageshadow="2" inkscape:window-height="900" inkscape:window-maximized="0" inkscape:window-width="1440" inkscape:window-x="0" inkscape:window-y="0" inkscape:zoom="0.74664733" pagecolor="#ffffff" showborder="false" showgrid="false" showguides="true">
	
		<inkscape:page  height="500" id="page8" inkscape:export-filename="../../../RBA Logo Black.png" inkscape:export-xdpi="96" inkscape:export-ydpi="96" width="500" x="0" y="0">
		</inkscape:page>
</sodipodi:namedview>
<rect id="rect480" y="0" class="st0" width="500.8" height="499.7"/>
<g id="g10" transform="matrix(1.0021567,0,0,-1.0021567,11.998501,603.43154)" inkscape:groupmode="layer" inkscape:label="Page 1">
	<g id="g14" transform="matrix(1.0932134,0,0,1.0776514,172.1143,291.369)">
		<path id="path16" class="st1" d="M73,154.9c27-3.4,42.8-38,29.3-65.6c28.2-25.1,14.1-76.9-20.8-79.4l59.8-0.1L174,154.9L73,154.9z
			 M28,123.1V98.5h40.7c5.8,0,10.7,5.5,10.7,12.2c0,6.7-4.9,12.4-10.7,12.4H28z M28,66.5V41.9H79c5.8,0,10.7,5.7,10.7,12.4
			S84.8,66.5,79,66.5L28,66.5z"/>
	</g>
	<g id="text20" transform="scale(0.93955645,-1.064332)">
		<path id="path486" class="st1" d="M347.7-283.9l10.6-21h54.6l10.7,21h36.2l-74.1-146.7c-24.7,49-49.6,97.8-74.3,146.7H347.7z
			 M374.6-337.2l11-21.6l10.9,21.6H374.6z"/>
	</g>
	<g id="text28" transform="scale(0.95245409,-1.0499194)">
		<path id="path489" class="st1" d="M75.1-287.7v-40.8h38.3l27.8,40.8h39.7l-31.2-45.9c18.4-8.7,31.2-27.3,31.2-49
			c0-29.9-24.4-54.2-54.1-54.2H75.1H42.3v108.3v40.8L75.1-287.7z M75.1-361.4v-22.9V-404h26.4h25.3c11.7,0,21.2,9.7,21.2,21.4
			c0,10.3-7.6,19.1-17.6,20.9c-1.2,0.3-2.4,0.3-3.6,0.3h-36H75.1z"/>
	</g>
	<g id="text32" transform="scale(1.0443625,-0.95752194)">
		<path id="path446" class="st1" d="M57.6-284.8c3.7,0,6.9,1.3,9.6,4c2.6,2.6,4,5.8,4,9.6c0,3.7-1.3,6.9-4,9.6c-2.6,2.6-5.8,4-9.6,4
			h-19v-8h19c1.5,0,2.8-0.5,3.9-1.6c1.1-1.1,1.7-2.4,1.7-4c0-1.5-0.6-2.8-1.7-3.9c-1.1-1.1-2.4-1.7-3.9-1.7h-5.5
			c-3.7,0-6.9-1.3-9.6-4c-2.6-2.7-4-5.9-4-9.7s1.3-6.9,4-9.6c2.6-2.6,5.8-4,9.6-4h16.3v8H52.1c-1.5,0-2.8,0.6-3.9,1.7
			c-1.1,1.1-1.7,2.4-1.7,4c0,1.5,0.6,2.8,1.7,3.9c1.1,1.1,2.4,1.6,3.9,1.6H57.6z"/>
		<path id="path448" class="st1" d="M87.4-300.8c3.6-2.1,7.4-3.1,11.6-3.1s8,1,11.6,3.1c3.6,2.1,6.4,4.9,8.5,8.5
			c2.1,3.5,3.1,7.4,3.1,11.6c0,4.2-1,8.1-3.1,11.6c-2.1,3.5-4.9,6.3-8.5,8.4c-3.5,2.1-7.4,3.1-11.6,3.1s-8.1-1-11.6-3.1
			c-3.5-2.1-6.3-4.9-8.4-8.4c-2.1-3.6-3.1-7.4-3.1-11.6c0-4.2,1-8,3.1-11.6C81-295.9,83.8-298.7,87.4-300.8z M88.3-270
			c3,3,6.5,4.4,10.7,4.4s7.8-1.5,10.7-4.4c3-3,4.4-6.5,4.4-10.7c0-4.2-1.5-7.8-4.4-10.7c-3-3-6.5-4.4-10.7-4.4s-7.8,1.5-10.7,4.4
			c-3,3-4.4,6.5-4.4,10.7C83.9-276.6,85.3-273,88.3-270z"/>
		<path id="path450" class="st1" d="M161.3-295.9h-32.6v-8h32.6V-295.9z M128.7-257.6v-27.2h27.1v8h-19.1v19.2L128.7-257.6z"/>
		<path id="path452" class="st1" d="M168-303.9h32.6v8h-12.3v38.3h-8v-38.3H168V-303.9z"/>
		<path id="path454" class="st1" d="M254-303.9h8.3l-11.7,46.3h-8.3l-7.5-29.9l-7.5,29.9H219l-11.7-46.3h8.3l7.5,29.9l7.5-29.9h8.3
			l7.6,29.9L254-303.9z"/>
		<path id="path456" class="st1" d="M286.3-303.9l16.9,46.3h-8.5L282-292.2l-12.6,34.6h-8.5l16.9-46.3H286.3z"/>
		<path id="path458" class="st1" d="M337.7-290.3c0,2.6-0.7,5-2,7.1c-1.4,2.2-3.2,3.8-5.4,5l7.5,20.6h-8.5l-6.9-19.1h-17.1v-8.1h19
			c1.5,0,2.8-0.5,3.9-1.6c1.1-1.1,1.7-2.4,1.7-3.9c0-1.5-0.6-2.9-1.7-4c-1.1-1.1-2.4-1.7-3.9-1.7h-19v-8h19c3.7,0,6.9,1.3,9.6,4
			C336.4-297.3,337.7-294.1,337.7-290.3z"/>
		<path id="path460" class="st1" d="M377-257.6h-32.6v-8H377V-257.6z M377-295.9h-32.6v-8H377V-295.9z M371.5-276.7h-27.1v-8.1h27.1
			V-276.7z"/>
		<path id="path462" class="st1" d="M402.7-284.8c3.7,0,6.9,1.3,9.6,4c2.6,2.6,4,5.8,4,9.6c0,3.7-1.3,6.9-4,9.6s-5.8,4-9.6,4h-19v-8
			h19c1.5,0,2.8-0.5,3.9-1.6c1.1-1.1,1.7-2.4,1.7-4c0-1.5-0.6-2.8-1.7-3.9c-1.1-1.1-2.4-1.7-3.9-1.7h-5.5c-3.7,0-6.9-1.3-9.6-4
			c-2.6-2.7-4-5.9-4-9.7s1.3-6.9,4-9.6c2.6-2.6,5.8-4,9.6-4h16.3v8h-16.3c-1.5,0-2.8,0.6-3.9,1.7c-1.1,1.1-1.7,2.4-1.7,4
			c0,1.5,0.6,2.8,1.7,3.9c1.1,1.1,2.4,1.6,3.9,1.6H402.7z"/>
	</g>
</g>
</svg>
