<?xml version="1.0" encoding="UTF-8" standalone="no"?>
<!-- Created with Inkscape (http://www.inkscape.org/) -->

<svg
   version="1.1"
   id="svg2"
   width="640"
   height="350"
   viewBox="0 0 640 350"
   sodipodi:docname="RBA Logo.svg"
   inkscape:version="1.2 (dc2aeda, 2022-05-15)"
   xmlns:inkscape="http://www.inkscape.org/namespaces/inkscape"
   xmlns:sodipodi="http://sodipodi.sourceforge.net/DTD/sodipodi-0.dtd"
   xmlns="http://www.w3.org/2000/svg"
   xmlns:svg="http://www.w3.org/2000/svg">
  <defs
     id="defs6" />
  <sodipodi:namedview
     id="namedview4"
     pagecolor="#ffffff"
     bordercolor="#000000"
     borderopacity="0.25"
     inkscape:showpageshadow="2"
     inkscape:pageopacity="0.0"
     inkscape:pagecheckerboard="0"
     inkscape:deskcolor="#d1d1d1"
     showgrid="false"
     inkscape:zoom="0.89660043"
     inkscape:cx="513.60671"
     inkscape:cy="368.61459"
     inkscape:window-width="1440"
     inkscape:window-height="813"
     inkscape:window-x="71"
     inkscape:window-y="40"
     inkscape:window-maximized="0"
     inkscape:current-layer="g10"
     showborder="false"
     showguides="false">
    <inkscape:page
       x="0"
       y="0"
       id="page8"
       width="640"
       height="350" />
  </sodipodi:namedview>
  <g
     id="g10"
     inkscape:groupmode="layer"
     inkscape:label="Page 1"
     transform="matrix(1.3333333,0,0,-1.3333333,0,640)">
    <g
       id="g14"
       transform="matrix(1.0932134,0,0,1.0776514,172.1143,291.369)"
       style="stroke-width:0.921316;fill:#ffffff">
      <path
         id="path16"
         style="fill:#ffffff;fill-opacity:1;fill-rule:nonzero;stroke:none;stroke-width:0.921316"
         d="M 81.815942,165.64747 C 112.6912,161.80197 130.74811,122.17683 115.35793,90.654792 147.60692,61.958253 131.54227,2.6689925 91.567407,-0.19042501 L 160.00051,-0.33251486 197.30862,165.646 Z M 30.355979,129.31641 V 101.15333 H 76.90432 c 6.649883,0 12.288575,6.33238 12.288575,13.99804 0,7.66567 -5.638692,14.16504 -12.288575,14.16504 z m 0,-64.825193 V 36.328131 h 58.258303 c 6.649883,0 12.287108,6.499376 12.287108,14.165039 0,7.665663 -5.637225,13.998047 -12.287108,13.998047 z" />
    </g>
    <g
       aria-label="A"
       transform="scale(0.93955645,-1.064332)"
       id="text20"
       style="font-size:168.205px;font-family:'Request Personal Use';-inkscape-font-specification:RequestPersonalUse;fill:#ffffff;stroke-width:0.932844">
      <path
         d="m 369.3679,-273.61104 12.11076,-24.05331 h 62.40405 l 12.27897,24.05331 h 41.37843 l -84.77532,-167.86859 c -28.25844,56.01227 -56.68509,111.85633 -84.94353,167.86859 z m 30.78151,-61.05841 12.61538,-24.72614 12.44717,24.72614 z"
         id="path486"
         style="fill:#ffffff" />
    </g>
    <g
       aria-label="R"
       transform="scale(0.95245409,-1.0499194)"
       id="text28"
       style="font-size:170.925px;font-family:'Request Personal Use';-inkscape-font-specification:RequestPersonalUse;fill:#ffffff;stroke-width:0.94977">
      <path
         d="m 57.962601,-277.36402 v -46.66253 H 101.7194 l 31.79205,46.66253 H 178.9775 L 143.25418,-329.838 c 21.02377,-9.91365 35.72332,-31.27927 35.72332,-56.0634 0,-34.185 -27.86077,-62.04577 -61.87485,-62.04577 H 57.962601 20.3591 v 123.92062 46.66253 z m 0,-84.26603 v -26.15152 -22.5621 h 30.253725 28.886324 c 13.33215,0 24.27135,11.11012 24.27135,24.44227 0,11.79383 -8.71717,21.8784 -20.16915,23.9295 -1.3674,0.34185 -2.7348,0.34185 -4.1022,0.34185 H 75.909726 Z"
         id="path489"
         style="fill:#ffffff" />
    </g>
    <g
       aria-label="SOFTWARES"
       transform="scale(1.0443625,-0.95752194)"
       id="text32"
       style="font-size:75.6139px;font-family:Incompleeta;-inkscape-font-specification:IncompleetaRegular;fill:#ffffff;stroke-width:0.959926">
      <path
         d="m 40.396734,-268.9658 q 6.427182,0 10.964016,4.61245 4.536834,4.53683 4.536834,10.96401 0,6.42718 -4.536834,10.96402 -4.536834,4.53683 -10.964016,4.53683 H 18.619931 v -9.14928 h 21.776803 q 2.646487,0 4.46122,-1.81473 1.890348,-1.89035 1.890348,-4.53684 0,-2.64648 -1.890348,-4.46122 -1.814733,-1.89035 -4.46122,-1.89035 h -6.275953 q -6.427182,0 -10.964016,-4.53683 -4.536834,-4.61245 -4.536834,-11.03963 0,-6.42718 4.536834,-10.96401 4.536834,-4.53684 10.964016,-4.53684 h 18.676633 v 9.14928 H 34.120781 q -2.570873,0 -4.46122,1.89035 -1.890348,1.89035 -1.890348,4.53684 0,2.57087 1.890348,4.46122 1.890347,1.81473 4.46122,1.81473 z"
         id="path446"
         style="fill:#ffffff" />
      <path
         d="m 74.42301,-287.26436 q 6.124726,-3.55386 13.308046,-3.55386 7.183321,0 13.232434,3.55386 6.12472,3.55385 9.67858,9.67857 3.55385,6.04912 3.55385,13.23244 0,7.18332 -3.55385,13.30804 -3.55386,6.04911 -9.67858,9.60297 -6.049113,3.55385 -13.232434,3.55385 -7.18332,0 -13.308046,-3.55385 -6.049112,-3.55386 -9.602965,-9.60297 -3.553854,-6.12472 -3.553854,-13.30804 0,-7.18332 3.553854,-13.23244 3.553853,-6.12472 9.602965,-9.67857 z m 1.058595,35.16046 q 5.066131,5.06613 12.249451,5.06613 7.183321,0 12.249452,-5.06613 5.066132,-5.06613 5.066132,-12.24945 0,-7.18332 -5.066132,-12.24946 -5.066131,-5.06613 -12.249452,-5.06613 -7.18332,0 -12.249451,5.06613 -5.066132,5.06614 -5.066132,12.24946 0,7.18332 5.066132,12.24945 z"
         id="path448"
         style="fill:#ffffff" />
      <path
         d="m 159.03499,-281.66894 h -37.27765 v -9.14928 h 37.27765 z m -37.27765,43.78045 v -31.07731 h 31.0017 v 9.14928 h -21.85242 v 21.92803 z"
         id="path450"
         style="fill:#ffffff" />
      <path
         d="m 166.67205,-290.81822 h 37.27765 v 9.14928 h -14.06418 v 43.78045 h -9.14928 v -43.78045 h -14.06419 z"
         id="path452"
         style="fill:#ffffff" />
      <path
         d="m 265.04575,-290.81822 h 9.45174 l -13.38366,52.92973 h -9.45174 l -8.61998,-34.17748 -8.61999,34.17748 h -9.45173 l -13.38366,-52.92973 h 9.45173 l 8.61999,34.17748 8.61998,-34.17748 h 9.45174 l 8.6956,34.17748 z"
         id="path454"
         style="fill:#ffffff" />
      <path
         d="m 302.02102,-290.81822 19.28155,52.92973 h -9.7542 l -14.44225,-39.54607 -14.36664,39.54607 h -9.7542 l 19.28155,-52.92973 z"
         id="path456"
         style="fill:#ffffff" />
      <path
         d="m 360.84857,-275.31737 q 0,4.46122 -2.34403,8.1663 -2.34403,3.70508 -6.20034,5.67104 l 8.54437,23.59154 h -9.75419 l -7.93946,-21.85242 h -19.584 v -9.22489 h 21.7768 q 2.64649,0 4.46122,-1.81473 1.89035,-1.89035 1.89035,-4.46122 0,-2.64649 -1.89035,-4.53684 -1.81473,-1.89035 -4.46122,-1.89035 h -21.7768 v -9.14928 h 21.7768 q 6.42718,0 10.96402,4.53684 4.53683,4.53683 4.53683,10.96401 z"
         id="path458"
         style="fill:#ffffff" />
      <path
         d="m 405.76333,-237.88849 h -37.27765 v -9.14928 h 37.27765 z m 0,-43.78045 h -37.27765 v -9.14928 h 37.27765 z m -6.27595,21.92803 h -31.0017 v -9.22489 h 31.0017 z"
         id="path460"
         style="fill:#ffffff" />
      <path
         d="m 435.17719,-268.9658 q 6.42718,0 10.96401,4.61245 4.53684,4.53683 4.53684,10.96401 0,6.42718 -4.53684,10.96402 -4.53683,4.53683 -10.96401,4.53683 h -21.77681 v -9.14928 h 21.77681 q 2.64648,0 4.46122,-1.81473 1.89035,-1.89035 1.89035,-4.53684 0,-2.64648 -1.89035,-4.46122 -1.81474,-1.89035 -4.46122,-1.89035 h -6.27596 q -6.42718,0 -10.96401,-4.53683 -4.53684,-4.61245 -4.53684,-11.03963 0,-6.42718 4.53684,-10.96401 4.53683,-4.53684 10.96401,-4.53684 h 18.67664 v 9.14928 h -18.67664 q -2.57087,0 -4.46122,1.89035 -1.89034,1.89035 -1.89034,4.53684 0,2.57087 1.89034,4.46122 1.89035,1.81473 4.46122,1.81473 z"
         id="path462"
         style="fill:#ffffff" />
    </g>
  </g>
</svg>
